Coordinates
version=1
nRows=17
nColumns=33
inDegrees=yes

Units are S.I. units (second, meters, Newtons, ...)
Angles are in degrees.

endheader
time	ground_thorax_rot_x	ground_thorax_rot_y	ground_thorax_rot_z	ground_thorax_tx	ground_thorax_ty	ground_thorax_tz	clav_prot_r	clav_elev_r	scapula_abduction_r	scapula_elevation_r	scapula_upward_rot_r	scapula_winging_r	shoulder_elv_r	plane_of_elev_r	axial_rot_r	elbow_flexion_r	pro_sup_r	wrist_flex_r	wrist_dev_r	clav_prot_l	clav_elev_l	scapula_abduction_l	scapula_elevation_l	scapula_upward_rot_l	scapula_winging_l	shoulder_elv_l	plane_of_elev_l	axial_rot_l	elbow_flexion_l	pro_sup_l	wrist_flex_l	wrist_dev_l
      5.36000000	      2.08575232	      2.89949937	     12.44622699	     -0.11842913	      1.03773779	      0.02813815	      4.28842644	     11.37479388	     17.49496279	      7.36522498	     22.37104942	    -10.25020307	     13.52842970	    -74.23029427	     58.80983782	     54.55266684	    -24.94439322	     70.00000021	    -24.99999983	     12.85910141	     -5.06397388	    -20.14111447	    -21.31374681	    -45.00000000	      0.86348458	     60.01954470	    -39.73910419	     -4.39929320	     66.79203828	     24.90502396	     -0.18871255	    -24.99999983
      5.37000000	      1.93708499	      3.02999463	     12.58492057	     -0.11870316	      1.03779069	      0.02803797	      4.12617371	     11.02447516	     17.22452727	      7.10446373	     22.27169597	    -10.14182236	     13.41694223	    -74.21103553	     58.74551190	     54.18807193	    -24.81267885	     70.00000021	    -24.99999983	     12.82289761	     -5.09408213	    -20.07807843	    -21.28797308	    -45.00000000	      0.83660716	     60.10312271	    -39.65561038	     -4.30677042	     66.48570515	     24.92948569	     -0.55847968	    -24.99999983
      5.38000000	      1.91685118	      3.07124780	     12.67560011	     -0.11913529	      1.03717488	      0.02791169	      4.11816736	     11.00683429	     17.23637981	      7.08175428	     22.29486135	    -10.15056650	     13.42299465	    -74.16852641	     58.73349015	     54.20469273	    -24.80991223	     70.00000021	    -24.99999983	     12.81776937	     -5.11749531	    -20.06003522	    -21.25489096	    -44.97530057	      0.83517421	     60.11714370	    -39.59595105	     -4.29360471	     66.51189485	     24.92675248	     -0.57141461	    -24.99999983
      5.39000000	      1.91964312	      3.22925916	     12.77077939	     -0.11931945	      1.03670176	      0.02780937	      4.10196580	     10.93768803	     17.17085727	      7.04669116	     22.22660736	    -10.11859085	     13.38834386	    -74.14175466	     58.71115173	     54.22467772	    -24.79358503	     70.00000021	    -24.99999983	     12.78633806	     -5.17746277	    -19.99354755	    -21.18616842	    -44.94293554	      0.81592135	     60.19082441	    -39.45267913	     -4.19708637	     66.53569888	     24.92699854	     -0.65183326	    -24.99999983
      5.40000000	      1.31086925	      3.83625350	     12.76273798	     -0.11935033	      1.03662996	      0.02815914	      3.38228845	     10.20846536	     15.63928251	      6.61168533	     21.73941848	     -9.55929296	     13.53675569	    -73.80839815	     57.87941993	     54.37090933	    -24.31560231	     70.00000021	    -24.99999983	     13.02897666	     -4.86316300	    -20.44121397	    -21.49259013	    -45.00000000	      0.98744177	     61.05319702	    -39.04448272	     -4.87157185	     66.37411562	     25.46225566	     -3.11979633	    -24.99999983
      5.41000000	      1.29213279	      3.87225203	     12.87763775	     -0.11954672	      1.03621359	      0.02804225	      3.37159609	     10.19861846	     15.66177253	      6.58813004	     21.78448067	     -9.57427887	     13.56137799	    -73.74992306	     57.85649034	     54.39723374	    -24.31696200	     70.00000021	    -24.99999983	     13.02797555	     -4.89217834	    -20.42948383	    -21.45197857	    -44.97020677	      0.99088294	     61.07831891	    -38.97324113	     -4.83793645	     66.39560507	     25.45775678	     -3.13664527	    -24.99999983
      5.42000000	      1.27202725	      3.92351408	     12.97335868	     -0.11964583	      1.03583574	      0.02793099	      3.36403164	     10.19425220	     15.67520708	      6.57148211	     21.82314117	     -9.58322524	     13.59440628	    -73.69622440	     57.82208883	     54.44041936	    -24.32166792	     70.00000021	    -24.99999983	     13.02808487	     -4.92071380	    -20.41757738	    -21.41066144	    -44.93773394	      0.99856339	     61.12202341	    -38.90297570	     -4.78613342	     66.40641114	     25.45343608	     -3.15966250	    -24.99999983
      5.43000000	      1.33751391	      4.05160078	     12.70913938	     -0.11947179	      1.03549083	      0.02814244	      3.21489066	     10.18365472	     15.37095093	      6.57680654	     21.79239681	     -9.48683910	     13.95614995	    -73.57507677	     57.36568805	     55.00369184	    -24.42716256	     70.00000021	    -24.99999983	     13.03543672	     -5.11750785	    -20.45027612	    -21.25255403	    -45.00000000	      1.01832624	     61.32739538	    -38.61096592	     -4.47947471	     66.31113544	     25.46226289	     -3.47133095	    -24.99999983
      5.44000000	      1.32391239	      4.08880827	     12.79845410	     -0.11938512	      1.03526642	      0.02808632	      3.20972540	     10.18036957	     15.39217627	      6.56194913	     21.82644422	     -9.50137060	     13.99024484	    -73.53289580	     57.34022164	     55.02615498	    -24.43159590	     70.00000021	    -24.99999983	     13.04549318	     -5.12696182	    -20.45830309	    -21.23629686	    -44.98368091	      1.02148511	     61.36131830	    -38.57588000	     -4.46720311	     66.32526171	     25.46017064	     -3.48328371	    -24.99999983
      5.45000000	      1.28236881	      4.23605008	     12.71727570	     -0.11929190	      1.03471700	      0.02820362	      3.20275945	     10.21771211	     15.32982187	      6.60933617	     21.78501763	     -9.47986377	     14.15901358	    -73.51244226	     57.21158918	     55.49868631	    -24.47026144	     70.00000021	    -24.99999983	     13.13880600	     -5.13911582	    -20.63073776	    -21.22556409	    -45.00000000	      1.10529820	     61.59543963	    -38.48968116	     -4.48642438	     66.44140206	     25.44697012	     -3.61298480	    -24.99999983
      5.46000000	      1.27309509	      4.24092389	     12.78970766	     -0.11909193	      1.03483177	      0.02814220	      3.18542331	     10.20905326	     15.33555988	      6.58959644	     21.82222459	     -9.48689400	     14.20783294	    -73.46971104	     57.16912849	     55.54084102	    -24.48089581	     70.00000021	    -24.99999983	     13.14497564	     -5.15289331	    -20.64143232	    -21.21295057	    -45.00000000	      1.10921539	     61.60384712	    -38.45290102	     -4.49893590	     66.47848489	     25.44261180	     -3.62313508	    -24.99999983
      5.47000000	      0.82509565	      4.88664489	     12.85236084	     -0.11919107	      1.03454740	      0.02837366	      2.75275793	      9.50275519	     13.92885985	      6.34139518	     20.82505783	     -8.89666607	     15.96844198	    -73.34385566	     57.52757921	     56.72184281	    -24.58888258	     70.00000021	    -24.99999983	     14.04314667	     -5.05906998	    -22.21047553	    -21.24139534	    -45.00000000	      1.85669357	     61.33936975	    -38.46978868	     -4.62622327	     67.00624184	     24.72933506	     -4.59033430	    -24.99999983
      5.48000000	      0.87909422	      4.92797033	     12.70307173	     -0.11891424	      1.03445450	      0.02846589	      2.70632940	      9.64411232	     13.97633037	      6.38451736	     21.05313303	     -8.95210927	     16.08404972	    -73.31151215	     57.56363744	     57.12626608	    -24.58316934	     70.00000021	    -24.99999983	     14.10596062	     -5.04759736	    -22.32161334	    -21.24762630	    -45.00000000	      1.90871408	     61.39630557	    -38.22703735	     -4.60660934	     67.16372550	     24.67861275	     -4.59845798	    -24.99999983
      5.49000000	      0.85694841	      4.94848221	     12.79083650	     -0.11848583	      1.03486229	      0.02842883	      2.69840780	      9.65033860	     14.00807507	      6.36947685	     21.11278469	     -8.96910513	     16.12395180	    -73.26051917	     57.53630750	     57.16275427	    -24.58769922	     70.00000021	    -24.99999983	     14.11437818	     -5.05323736	    -22.32888538	    -21.23312778	    -44.97996433	      1.91764231	     61.42756503	    -38.18730199	     -4.58989259	     67.19190706	     24.67176241	     -4.60152869	    -24.99999983
      5.50000000	      0.95968917	      5.01720646	     12.55629797	     -0.11806514	      1.03436645	      0.02868077	      2.55513246	      9.92596803	     13.92368773	      6.48806416	     21.46419246	     -9.01213736	     16.60666311	    -73.46568794	     57.47101818	     58.27110778	    -24.64462424	     70.00000021	    -24.99999983	     14.27123469	     -5.08635033	    -22.60823551	    -21.19993182	    -45.00000000	      2.05537113	     61.43416442	    -37.93912035	     -4.42586225	     67.67321655	     24.36565578	     -4.51889738	    -24.99999983
      5.51000000	      0.92571903	      5.04278780	     12.68888898	     -0.11762294	      1.03499572	      0.02868629	      2.54959443	      9.92414849	     13.97124609	      6.46265025	     21.53376920	     -9.03435053	     16.64772721	    -73.38833690	     57.44350734	     58.31967123	    -24.64652607	     70.00000021	    -24.99999983	     14.28542774	     -5.10194553	    -22.61549245	    -21.16476251	    -44.95365704	      2.06710487	     61.48336245	    -37.86825065	     -4.39997786	     67.72139848	     24.35381033	     -4.52296209	    -24.99999983
      5.52000000	      0.96792523	      5.16090910	     12.42178166	     -0.11727398	      1.03462567	      0.02892592	      2.47050442	     10.06990307	     13.92923886	      6.52199536	     21.72963873	     -9.06042351	     17.30351866	    -73.53059792	     57.39888111	     59.56622375	    -24.67266754	     70.00000021	    -24.99999983	     14.51696000	     -5.27129194	    -23.03125143	    -21.01020047	    -45.00000000	      2.27764323	     61.53542099	    -37.64851154	     -3.98153436	     68.32576343	     23.73943897	     -4.29286719	    -24.99999983
